<svg xmlns="http://www.w3.org/2000/svg" height="24px" viewBox="0 -960 960 960" width="24px" fill="#1f1f1f"><path d="M159-173v-54h454v54H159Zm348.5-334.35Q453-561.7 453-639.85t54.35-132.65Q561.7-827 639.85-827t132.65 54.35Q827-718.3 827-640.15T772.65-507.5Q718.3-453 640.15-453T507.5-507.35ZM159-493v-54h200q3 15 10 28.5t15 25.5H159Zm0 160v-54h341q24 18 53 29t60 13v12H159Zm454-180h54v-138h-54v138Zm50.5-193.5Q673-716 673-730t-9.5-23.5Q654-763 640-763t-23.5 9.5Q607-744 607-730t9.5 23.5Q626-697 640-697t23.5-9.5Z"/></svg>